<?xml version="1.0" encoding="UTF-8"?>
<svg width="179px" height="56px" viewBox="0 0 179 56" preserveAspectRatio="xMinYMax meet" version="1.1" xmlns="http://www.w3.org/2000/svg" xmlns:xlink="http://www.w3.org/1999/xlink">
    <!-- Generator: Sketch 50.2 (55047) - http://www.bohemiancoding.com/sketch -->
    <title>Shape</title>
    <desc>Created with Sketch.</desc>
    <defs></defs>
    <g id="Symbols" stroke="none" stroke-width="1" fill="none" fill-rule="evenodd">
        <g id="header-sticky" transform="translate(-165.000000, -12.000000)" fill="#FFFFFF" fill-rule="nonzero">
            <g id="header">
                <g id="logo-catacombes" transform="translate(165.000000, 12.000000)">
                    <path d="M62.7126031,39.788 L57.7727654,39.788 C58.1202345,40.268998 58.277427,40.8606989 58.2142675,41.4498933 L58.2142675,49.9967067 C58.2774282,50.5857262 58.1202291,51.1772523 57.7727654,51.65804 L62.7126031,51.65804 C65.514,51.65804 67.8902953,49.7248267 67.8902953,45.7230667 C67.8902953,41.7213067 65.514,39.788 62.7126031,39.788 Z M62.8655497,49.36876 L60.7603785,49.36876 L60.7603785,42.0771867 L62.8655497,42.0771867 C64.5971639,42.0771867 65.3437157,43.5185333 65.3437157,45.7232533 C65.343622,47.9108933 64.5970702,49.36876 62.8655497,49.36876 Z M28.9211518,23.8756 C31.8530031,23.8756 33.3128372,22.0971333 33.3128372,20.0101067 C33.3128372,17.92308 31.8530031,16.1446133 28.9211518,16.1446133 C25.9893005,16.1446133 24.5294665,17.92364 24.5294665,20.0101067 C24.5294665,22.0965733 25.9893005,23.8756 28.9211518,23.8756 Z M37.6036827,24.4427867 L30.4431204,28.0433067 L37.6037764,31.5583333 L37.6036827,24.4427867 Z M175.822328,27.3042933 L171.900729,26.3204667 C171.221466,26.1513467 171.018287,25.81208 171.018287,25.28624 C171.018287,24.67612 171.646193,24.0653467 173.224766,24.0653467 C174.565673,24.0653467 175.516623,24.6246933 175.516623,25.7950933 L177.80801,25.7950933 C177.655157,22.9632667 175.703401,21.77644 173.225235,21.77644 C170.611179,21.77644 168.55699,23.2172267 168.55699,25.5066933 C168.467074,27.0229407 169.533389,28.3652196 171.035718,28.62692 L174.803903,29.52544 C175.308001,29.6445585 175.647884,30.1141359 175.601999,30.62808 C175.601999,31.5096133 174.786659,32.0354533 173.225235,32.0354533 C171.765307,32.0354533 170.746975,31.4418533 170.763938,30.1191333 L168.472082,30.1191333 C168.404231,32.4086 169.711212,34.3244533 173.225235,34.3244533 C176.298225,34.3244533 178.063202,32.5947067 178.063202,30.42452 C178.217273,28.9694418 177.254876,27.6293301 175.822422,27.3042933 L175.822328,27.3042933 Z M49.0134801,22.09732 C47.1948963,6.05434667 36.9686545,0 25.4536126,0 C11.2121476,0 -0.074973822,10.2156133 -6.65873606e-15,28 C0.074973822,45.7843867 11.2121476,56 25.4536126,56 C36.8171136,56 47.1946152,50.0209733 49.013199,33.978 L37.6505414,33.978 C36.3623037,44.0430667 30.9838691,45.78336 25.6809707,45.78336 C18.1054283,45.78336 11.3638759,41.99944 11.3638759,28 C11.3638759,14.00056 18.1054283,10.2156133 25.6809707,10.2156133 C30.9838691,10.2156133 36.3626785,12.0322533 37.6505414,22.0969467 L49.0134801,22.09732 Z M28.9211518,39.8566 C31.8530031,39.8566 33.3128372,38.0786 33.3128372,35.9911067 C33.3128372,33.9036133 31.8530031,32.1261733 28.9211518,32.1261733 C25.9893005,32.1261733 24.5294665,33.90464 24.5294665,35.9911067 C24.5294665,38.0775733 25.9893005,39.8566 28.9211518,39.8566 Z M84.8100126,14.3626933 C83.3501785,14.3626933 82.3318466,13.769 82.3482471,12.4463733 L80.0569534,12.4463733 C79.9890084,14.7359333 81.2959895,16.6516933 84.8100126,16.6516933 C87.8825335,16.6516933 89.6479796,14.9219467 89.6479796,12.75176 C89.8015679,11.2970331 88.8395335,9.95740207 87.4075743,9.632 L83.4859749,8.64770667 C82.8068058,8.47858667 82.603533,8.13932 82.603533,7.61338667 C82.603533,7.00326667 83.2314387,6.39258667 84.8100126,6.39258667 C86.1510131,6.39258667 87.1014,6.95184 87.1014,8.12233333 L89.3933497,8.12233333 C89.2404969,5.29050667 87.2881785,4.10312 84.8100126,4.10312 C82.1953005,4.10312 80.1418613,5.54446667 80.1418613,7.83393333 C80.0519063,9.35000043 81.1179233,10.6922086 82.6200272,10.95416 L86.3886801,11.85268 C86.892673,11.9719727 87.232498,12.4414156 87.1868702,12.95532 C87.1868702,13.8368533 86.3717173,14.3626933 84.8100126,14.3626933 Z M94.3779843,33.9854667 C93.7327408,33.8328667 93.6307764,33.5444667 93.7666665,33.0529733 L94.3945723,31.1876133 L98.9444524,31.1876133 L99.5728267,33.0529733 C99.7081545,33.5444667 99.5892272,33.8328667 98.9444524,33.9854667 L103.069325,33.9854667 C102.640775,33.8428328 102.302464,33.5109714 102.15277,33.0863867 L98.3843979,22.1154267 L95.0062649,22.1154267 L91.2035927,33.00164 C91.0601728,33.4605728 90.707747,33.825219 90.2527372,33.9854667 L94.3779843,33.9854667 Z M96.7038597,24.472 L98.1806565,28.8977733 L95.175612,28.8977733 L96.7038597,24.472 Z M68.9023482,16.3126133 L77.8651874,16.3126133 L77.8651874,13.0739467 C77.6304065,13.6828717 77.0241917,14.0679936 76.3707717,14.0233333 L71.8898675,14.0233333 L71.8898675,11.39544 L76.1002099,11.39544 C76.4506549,11.360066 76.8017016,11.4566245 77.0842414,11.6661067 L77.0842414,8.91930667 C76.8017991,9.12903682 76.4507493,9.22586257 76.1002099,9.19072 L71.8898675,9.19072 L71.8898675,6.73157333 L76.2694634,6.73157333 C76.7430361,6.68264655 77.1992361,6.92403408 77.4235916,7.34225333 L77.4235916,4.44266667 L68.9023482,4.44266667 C69.2494837,4.9235924 69.4064675,5.51506171 69.343288,6.104 L69.343288,14.65128 C69.4064675,15.2402183 69.2494837,15.8316876 68.9023482,16.3126133 Z M57.7730466,16.3126133 L66.5659764,16.3126133 L66.5659764,13.0739467 C66.0690562,13.7604948 65.2368849,14.1240277 64.3931414,14.0231467 L60.760566,14.0231467 L60.760566,6.104 C60.6975483,5.51499137 60.854734,4.92351535 61.2020681,4.44266667 L57.7730466,4.44266667 C58.1201336,4.92361522 58.2771124,5.51506577 58.2139864,6.104 L58.2139864,14.65128 C58.2771213,15.2402149 58.1201417,15.8316686 57.7730466,16.3126133 Z M62.7806419,24.0653467 C63.9686958,24.0653467 65.1738063,24.472 65.4630178,26.7275867 L68.0091288,26.7275867 C67.6015524,23.1329467 65.3100712,21.77644 62.7301283,21.77644 C59.5382115,21.77644 57.0091571,24.0653467 57.0255576,28.0502133 C57.0419581,32.03508 59.5382115,34.3244533 62.7301283,34.3244533 C65.2757707,34.3244533 67.6015524,32.9849333 68.0091288,29.3902933 L65.4630178,29.3902933 C65.1738063,31.64532 63.9686958,32.0354533 62.7806419,32.0354533 C61.0830471,32.0354533 59.5722309,31.1873333 59.5722309,28.05012 C59.5722309,24.9129067 61.0830471,24.0653467 62.7806419,24.0653467 Z M91.5077052,39.788 L86.2287047,39.788 C86.5759517,40.2690889 86.73297,40.8607622 86.6697382,41.4498933 L86.6697382,49.9967067 C86.732998,50.5856648 86.5759706,51.1771728 86.2287047,51.65804 L89.6572576,51.65804 C89.3103323,51.1770155 89.1533701,50.5856274 89.2163178,49.9967067 L89.2163178,47.7586667 L91.5077052,47.7586667 C94.5462068,47.7586667 95.9722089,46.0797867 95.9722089,43.7733333 C95.9722089,41.46688 94.5462068,39.788 91.5077052,39.788 Z M91.6775209,45.4685467 L89.2163178,45.4685467 L89.2163178,42.0771867 L91.6775209,42.0771867 C92.1486024,42.0191316 92.6206615,42.1773138 92.9606886,42.507163 C93.3007156,42.8370122 93.4718987,43.3028183 93.4260042,43.7733333 C93.4601971,44.2408006 93.2852669,44.6994313 92.9480619,45.0263989 C92.6108569,45.3533665 92.1458301,45.515264 91.6775209,45.4687333 L91.6775209,45.4685467 Z M142.440984,22.1154267 L138.044425,22.1154267 L135.769438,31.3911733 L133.563052,22.1154267 L129.353366,22.1154267 C129.700461,22.5963714 129.857441,23.1878251 129.794306,23.77676 L129.794306,32.3241333 C129.857539,32.9130757 129.70055,33.5045638 129.353366,33.9854667 L132.527664,33.9854667 C132.180233,33.5046661 132.023068,32.9131411 132.086255,32.3241333 L132.086255,24.99812 L134.259372,33.9854667 L137.280348,33.9854667 L139.453464,25.20168 L139.453464,32.3241333 C139.516607,32.9131652 139.359373,33.5046956 139.011869,33.9854667 L142.440984,33.9854667 C142.093924,33.5045186 141.9371,32.9130204 142.000513,32.3241333 L142.000513,23.77676 C141.937171,23.187892 142.093953,22.5964294 142.440984,22.1154267 Z M114.393371,29.3901067 L111.846697,29.3901067 C111.55861,31.6452267 110.352938,32.03536 109.165259,32.03536 C107.467195,32.03536 105.956379,31.1878 105.956379,28.0500267 C105.956379,24.9122533 107.467195,24.0646933 109.165259,24.0646933 C110.352938,24.0646933 111.55861,24.4718133 111.846697,26.7269333 L114.393371,26.7269333 C113.985794,23.1322933 111.694313,21.7757867 109.113808,21.7757867 C105.923016,21.7757867 103.393399,24.0646933 103.410924,28.04956 C103.428449,32.0344267 105.922547,34.3238933 109.113808,34.3238933 C111.660762,34.3244533 113.986075,32.9847467 114.393652,29.3901067 L114.393371,29.3901067 Z M119.70714,48.0971867 C119.8074,47.2263404 119.21439,46.4265504 118.349177,46.2657067 C119.303779,45.5994787 119.848614,44.49225 119.792423,43.3327067 C119.792423,41.31456 118.366608,39.7883733 115.328013,39.7883733 L110.048544,39.7883733 C110.395942,40.2691891 110.553104,40.8607016 110.489952,41.4497067 L110.489952,49.9964267 C110.553023,50.5856006 110.395875,51.1772596 110.048544,51.65832 L113.477659,51.65832 C113.130206,51.177312 112.972984,50.5856288 113.036063,49.9964267 L113.036063,47.1646933 L116.244474,47.1646933 C116.957663,47.1646933 117.161404,47.6056933 117.161404,48.14796 L117.161404,49.98 C117.104219,50.605474 117.335185,51.2229909 117.78931,51.6587867 L120.370471,51.6587867 C119.877966,51.1272176 119.637002,50.4113962 119.708265,49.6916 L119.70714,48.0971867 Z M115.600262,45.1297467 L113.036626,45.1297467 L113.036626,42.0777467 L115.600262,42.0777467 C116.174525,42.0357608 116.724155,42.317085 117.024153,42.806556 C117.324152,43.2960269 117.324152,43.9114665 117.024153,44.4009374 C116.724155,44.8904083 116.174525,45.1717325 115.600262,45.1297467 Z M136.083766,44.9771467 L132.162823,43.99332 C131.483466,43.8242 131.279725,43.4849333 131.279725,42.9590933 C131.279725,42.34888 131.90763,41.7382 133.486673,41.7382 C134.827673,41.7382 135.778623,42.2974533 135.778623,43.4679467 L138.07001,43.4679467 C137.917157,40.63612 135.964932,39.4487333 133.486673,39.4487333 C130.871961,39.4487333 128.818521,40.8899867 128.818521,43.1795467 C128.72835,44.6956817 129.794467,46.0380164 131.296687,46.2997733 L135.064872,47.1982933 C135.568932,47.3174071 135.908804,47.7869297 135.862968,48.30084 C135.862968,49.1824667 135.048471,49.7083067 133.486673,49.7083067 C132.02637,49.7083067 131.008038,49.1146133 131.025001,47.7919867 L128.733614,47.7919867 C128.665762,50.0814533 129.972743,51.9973067 133.486673,51.9973067 C136.559194,51.9973067 138.324171,50.26756 138.324171,48.09728 C138.478099,46.6423313 137.515785,45.3023989 136.083485,44.9773333 L136.083766,44.9771467 Z M126.202966,39.7878133 L122.773851,39.7878133 C123.12132,40.2688114 123.278512,40.8605122 123.215353,41.4497067 L123.215353,49.99652 C123.278514,50.5855395 123.121314,51.1770656 122.773851,51.6578533 L126.202966,51.6578533 C125.855753,51.1769476 125.69858,50.5855184 125.761464,49.99652 L125.761464,41.45008 C125.69848,40.8608818 125.855545,40.2692157 126.202685,39.788 L126.202966,39.7878133 Z M107.704113,50.7593333 L103.935366,39.788 L100.557702,39.788 L96.7550293,50.67412 C96.611653,51.1329387 96.2594448,51.497574 95.8046424,51.65804 L99.9294209,51.65804 C99.2841775,51.5053467 99.1822131,51.2169467 99.3181031,50.7247067 L99.9460089,48.8599067 L104.495327,48.8599067 L105.123232,50.7247067 C105.259123,51.2166667 105.140758,51.5050667 104.495327,51.65804 L108.620668,51.65804 C108.192337,51.5152626 107.854124,51.183636 107.704113,50.7593333 Z M100.72733,46.571 L102.254921,42.1451333 L103.732281,46.571 L100.72733,46.571 Z M77.6363298,49.36876 L73.1549571,49.36876 L73.1549571,46.7413333 L77.365112,46.7413333 C77.7155368,46.7061976 78.0664982,46.8027327 78.3491435,47.012 L78.3491435,44.2650133 C78.0664982,44.4742807 77.7155368,44.5708158 77.365112,44.53568 L73.1549571,44.53568 L73.1549571,42.07728 L77.5349277,42.07728 C78.0084971,42.0284966 78.4646486,42.2698388 78.6891497,42.68796 L78.6891497,39.788 L70.167344,39.788 C70.5147833,40.2687991 70.6719799,40.8603159 70.6088461,41.4493333 L70.6088461,49.9961467 C70.6719519,50.585337 70.5147644,51.1770191 70.167344,51.65804 L79.1300895,51.65804 L79.1300895,48.4193733 C78.8957279,49.0283372 78.2896264,49.4135562 77.6363298,49.36876 Z M164.785994,31.696 L160.304621,31.696 L160.304621,29.0682933 L164.514308,29.0682933 C164.86502,29.0332026 165.216258,29.1297218 165.499276,29.33896 L165.499276,26.59216 C165.216299,26.8014805 164.865028,26.8980087 164.514308,26.8628267 L160.304621,26.8628267 L160.304621,24.4044267 L164.684124,24.4044267 C165.157666,24.3556567 165.613783,24.5970005 165.838252,25.0151067 L165.838252,22.1154267 L157.317008,22.1154267 C157.664464,22.5962182 157.821662,23.1877412 157.75851,23.77676 L157.75851,32.3235733 C157.821694,32.9127988 157.6645,33.5045371 157.317008,33.98556 L166.279848,33.98556 L166.279848,30.7468933 C166.045231,31.3556603 165.439204,31.7406943 164.785994,31.696 Z M80.3352,33.0866667 L76.5670157,22.11552 L73.188789,22.11552 L69.3861168,33.0017333 C69.243056,33.4607171 68.8907254,33.8254446 68.4357298,33.98556 L72.5605084,33.98556 C71.9158272,33.8328667 71.8138628,33.54456 71.9497529,33.0522267 L72.5776586,31.1873333 L77.1269764,31.1873333 L77.7548822,33.0522267 C77.8907723,33.5441867 77.771845,33.8324933 77.1269764,33.98556 L81.2522236,33.98556 C80.8236886,33.8428406 80.485286,33.5111285 80.3352,33.0866667 Z M73.3586047,28.8983333 L74.8861963,24.47256 L76.3629932,28.8983333 L73.3586047,28.8983333 Z M84.0375948,33.9854667 L87.4663351,33.9854667 C87.1189309,33.5044382 86.961745,32.9127624 87.024833,32.3235733 L87.024833,24.4044267 L89.6054319,24.4044267 C90.0790371,24.3554602 90.535285,24.5968535 90.7596539,25.0151067 L90.7596539,22.1154267 L80.7448382,22.1154267 L80.7448382,25.0151067 C80.9691269,24.5970569 81.4250871,24.3556982 81.8984979,24.4044267 L84.4790969,24.4044267 L84.4790969,32.3235733 C84.5421848,32.9127624 84.384999,33.5044382 84.0375948,33.9854667 Z M121.88185,21.77644 C118.894237,21.77644 116.347563,23.86188 116.347563,28.0502133 C116.347563,32.2385467 118.894237,34.3244533 121.88185,34.3244533 C124.869463,34.3244533 127.416042,32.2385467 127.416042,28.0502133 C127.416042,23.86188 124.869463,21.77644 121.88185,21.77644 Z M121.88185,32.0354533 C119.726352,32.0354533 118.894237,30.3905467 118.894237,28.05012 C118.894237,25.6932667 119.726352,24.0653467 121.88185,24.0653467 C124.037347,24.0653467 124.869463,25.6932667 124.869463,28.05012 C124.869463,30.3905467 124.037909,32.0354533 121.88185,32.0354533 Z M152.76516,27.8634533 C153.902711,27.3885396 154.640126,26.2769975 154.632571,25.0486133 C154.632571,23.4546667 153.699147,22.1150533 151.016677,22.1150533 L145.126359,22.1150533 C145.473329,22.5960433 145.630144,23.187507 145.56683,23.7763867 L145.56683,32.3241333 C145.630144,32.913013 145.473329,33.5044767 145.126359,33.9854667 L151.305326,33.9854667 C153.68209,33.9854667 155.124961,32.54412 155.124961,30.6786667 C155.234578,29.2584554 154.187878,28.0099203 152.76516,27.8638267 L152.76516,27.8634533 Z M148.113972,24.4040533 L150.84733,24.4040533 C151.81468,24.4040533 152.256182,24.8790267 152.256182,25.557 C152.279878,25.9183021 152.142789,26.2716941 151.881337,26.5232845 C151.619885,26.7748749 151.260542,26.8991897 150.898781,26.8632 L148.11444,26.8632 L148.113972,24.4040533 Z M151.13551,31.6956267 L148.113972,31.6956267 L148.113972,29.0682933 L151.220418,29.0682933 C151.578934,29.0562144 151.926815,29.1906747 152.183285,29.4404534 C152.439755,29.690232 152.582502,30.0335991 152.578382,30.3908267 C152.578382,31.1531733 152.154405,31.696 151.13551,31.696 L151.13551,31.6956267 Z" id="Shape"></path>
                </g>
            </g>
        </g>
    </g>
</svg>
